# xmcd CD database file
#
# Track frame offsets:
#	150
#	21186
#	38881
#	63850
#	86289
#	102576
#	125503
#
# Disc length: 1921 seconds
#
# Revision: 0
# Processed by: cddbd v1.5.1PL2 Copyright (c) Steve Scherf et al.
# Submitted via: CDex 1.51
#
DISCID=53077f07
DTITLE=METAL-X - Scream In Thunder
DYEAR=1900
DGENRE=Heavy Metal
TTITLE0=Scream In Thunder
TTITLE1=Return To ...
TTITLE2=Run For Your Life
TTITLE3=Where Do We Go
TTITLE4=Fight For Your Faith
TTITLE5=Another Tomorrow
TTITLE6=You Are The Future
EXTD=
EXTT0=
EXTT1=
EXTT2=
EXTT3=
EXTT4=
EXTT5=
EXTT6=
PLAYORDER=
